<?xml version="1.0" encoding="UTF-8"?>
<svg id="_Слой_2" data-name="Слой 2" xmlns="http://www.w3.org/2000/svg" viewBox="0 0 333.82 248.02">
  <defs>
    <style>
      .cls-1 {
        fill: #593d38;
      }

      .cls-2 {
        fill: #c4b9b8;
      }

      .cls-3 {
        fill: #a58b8a;
      }

      .cls-4 {
        fill: #ecceb6;
      }

      .cls-5 {
        fill: #fff;
      }

      .cls-6 {
        fill: #ff7752;
      }

      .cls-7 {
        fill: #d2c4c4;
      }

      .cls-8 {
        fill: #fefefe;
      }

      .cls-9 {
        fill: #9c807b;
      }

      .cls-10 {
        fill: #baaabf;
      }

      .cls-11 {
        fill: #fa6b48;
      }
    </style>
  </defs>
  <g id="_Слой_1-2" data-name="Слой 1">
    <g>
      <circle class="cls-6" cx="93.43" cy="134.78" r="93.43"/>
      <circle class="cls-10" cx="232.77" cy="112.32" r="101.05"/>
      <path class="cls-11" d="M300.74,182.02l.54-.54c-.18.17-.32.4-.54.54Z"/>
      <g>
        <path class="cls-10" d="M203.53,221.21c-9.24,14.8-32.99,3.59-39.2-9.12,14.23-4.54,25.94,6.56,39.2,9.12Z"/>
        <g>
          <path class="cls-7" d="M40.26,211.54c2.81-17.2,10.67-32.14,17.73-47.77,7.49,4.01,15.21,7.57,23.61,9.41,1.26.5,1.74,4.41,2.49,4.58,3.59.8,1.49-3.67,3.24-4.25,5.14-.44,10.87-.23,15.89-1.3,1.93-.41,10.38-4.08,11.11-3.56l3.81,9.07c-29.43.4-15.86,23.1-39.03,3.31-1.92-.53-2.14,1.13-1.01,2.63,12.2,15.1,30.3,7.7,37.08,15.01,2.39,5.19-8.92,8.47-12.42,9.05-11.38,1.91-22.99-1.47-32.5-7.65-1.03-.67-3.33-2.27-4.21-1.55-2.76,2.25,13.06,10.27,20.39,11.96,1.09.89-8.69,8.82-10.2,9.39-.9.34-4.16.51-4.33,1.13-1.19,6.93,12.41,3.33,16.14,2.36.23.18-1.61,3.75-3.22,4.83-3.25-.81-5.15-.99-6.93-1.25-16.8-2.47-29.15-9.27-37.65-15.39Z"/>
          <path class="cls-7" d="M111.01,226.7c.24-6.15-1.91-11.08-3.12-17.03,4.22-2.19,10.25-7.26,11.46-12.62,1.62,3.01,5.42,12.14,8.48,13.96,2.75,2.38,9.81,1.89,9.24,6.32-5.47,3.89-19.37,8.15-26.06,9.38Z"/>
          <path class="cls-7" d="M119.24,136.96c-1.68,9.3-12.14,17.2-20.44,9.36-5.69-6.11,2.7-5.63,3.13-10.3.32-3.52-7.08-.47-8.84-.24-1.96.26-9.52-.8-7.21,3.05,1.96,3.26,10.4,3.18,5.94,9.64-3.51,5.07-11.35,6.2-16.12,2.15-1.42-1.21-4.38-6.4-6.39-5.05-3.38,7.07,6.4,11.87,12.08,12.79l-.31,10.78c-32.81-4.71-36.63-32.77-34.35-60.41-.25-8.56-1.67-17.15-1.12-25.77,1.14-17.85,9.55-7.62,15.5.66,1.37,1.9,8.24,12.06,8.58,13.46.51,2.08-1.04,3.52-.96,5.49.8.79,8.69-5.2,10.37-6,10.64-5.66,18.95-2.14,29.37.1,1.26-3.19-4.82-3.22-5.28-5.14-.31-1.32,4.38-16.87,5.27-19.29,12.92-37.04,18.52,25.37,23.49,35.59,4.3,12.77,11.27,19.28,4.84,34.06-1.35,3.11-9.84,15.97-13.02,15.98-.92,0-6.51-6.39-6.59-7.34-.81.31,8.92-13.38,2.07-13.58ZM109.4,109.68c-7.55,1.55-9.28,15.42,1.75,16.84,11.17,1.43,12.46-19.76-1.75-16.84ZM66.19,130.63c-3.94,6.9,16.3-2.93,17.95-3.79,1.97-1.28,1.36-2.04-.66-2.78-1.67-.39-20.3-4.66-17.74.02.75,1.03,10.71,1.22,12.65,1.84-2.28,2.24-10.33,2.81-12.2,4.71Z"/>
          <path class="cls-10" d="M104.17,211.54v8.86c-.48,13.32-16.42,24.25-27.93,18.79,11.34-2.7,15.15-18.98,20.01-26.97,1.37-1.13,6.07-.51,7.92-.68Z"/>
          <path class="cls-2" d="M88.1,169.62c1.82-15.88,20.22-23.91,24.61-4.59-4.53,3.91-19.36,6.14-24.61,4.59Z"/>
          <path class="cls-10" d="M142.3,216.37c-15.09.4-18.46-16.12-24.16-26.83,16.69-2.95,17.8,16.81,24.16,26.83Z"/>
          <path class="cls-10" d="M133.17,178.26c-3.35-.55-8.6,1.96-11.3-.78-4.05-5.64-7.16-18.76-12.87-24.44,9.48-.95,13.2,10.55,17.82,16.8l6.34,8.42Z"/>
          <path class="cls-10" d="M132.63,190.07c-8.06-5.66-18.54-5.07-25.52,1.6-1.07.2-10.48-.23-10.47-.8,7.42-11.97,29.74-14.56,35.98-.8Z"/>
          <path class="cls-7" d="M155.73,188.46c-5.99-.3-10.87,3.1-16.07,5.34-1.36-4.25-7.33-9.29-9.71-12.04,6.88-2.64,15.75-1.46,22.19,2.5.78.52,4.57,3.26,3.58,4.2Z"/>
          <path class="cls-7" d="M107.93,210.47c3.15,11.03,4.4,28.08-8.05,33.28,1.5-9.41,4.64-15.79,5.96-25.51.46-2.5-1.06-8.04,2.09-7.76Z"/>
          <path class="cls-7" d="M93.43,211.55c-3.11,7.37-4.69,11.53-13.96,10.19l9.68-9.91,4.29-.27Z"/>
          <path class="cls-10" d="M92.35,154.65l-4.67,7.4c-1.14,1.03-2.01,7.38-2.31,7.63-.15.12-1.16-.07-1.6,0-.43-.41.5-10.8,1.35-11.8.26-.3,6.95-3.51,7.23-3.23Z"/>
          <path class="cls-2" d="M118.13,195.97l-6.44-3.48c3.6-4.22,5.37-.12,6.44,3.48Z"/>
          <path class="cls-2" d="M118.4,196.51c.35.18.35.36,0,.54v-.54Z"/>
          <path class="cls-1" d="M109.4,109.68c14.21-2.93,12.92,18.27,1.75,16.84-11.03-1.41-9.3-15.28-1.75-16.84ZM109.22,113.84c.03-2.02-3.15-2.02-3.12,0-.03,2.02,3.15,2.02,3.12,0Z"/>
          <path class="cls-1" d="M66.19,130.63c1.87-1.9,9.91-2.47,12.2-4.71-1.82-.67-18.24-.68-11.41-3.89,2.52-.41,13.92,1.09,16.5,2.03,2.01.74,2.63,1.5.66,2.78-1.63.86-21.9,10.69-17.95,3.79Z"/>
          <path class="cls-5" d="M109.22,113.84c.03,2.02-3.15,2.02-3.12,0-.03-2.02,3.15-2.02,3.12,0Z"/>
        </g>
        <g>
          <polygon class="cls-3" points="228.24 213.37 239.44 213.16 249.99 211.92 259.66 209.73 269.47 206.46 277.45 202.98 288.92 196.34 294.86 192.05 300.74 187.09 303 184.98 298.38 167.26 288.41 157.42 273.95 165.1 268.56 175.72 259.49 185.03 262.67 195.87 247.23 202.79 243.48 198.02 232.37 203.9 226.09 212.81 228.24 213.37"/>
          <path class="cls-7" d="M156.62,207.97c5.47,5.41,9.79,12.05,15.23,17.52-18.95,4.86-28.99-11.98-33.83-27.37,7.48-.32,13.64,4.93,18.61,9.85Z"/>
          <path class="cls-7" d="M229.85,205.64c-6.81,16.4-25.57,15.27-38.67,8.04-.39-1.86,7.36-5.51,8.76-6.53,8.96-4.13,20.34-.47,29.91-1.51Z"/>
          <path class="cls-7" d="M188.49,192.76c-6.85,11.87-4.03,17.25-20.13,15.57-2.54.13-7.76,2.58-8.81-1.46,5.19-8.76,18.43-16,28.94-14.11Z"/>
          <path class="cls-10" d="M204.07,187.92c.74,11.32-8.93,24.39-20.95,22.54,4.43-8.9,8.11-24.32,20.95-22.54Z"/>
          <path class="cls-10" d="M241.13,197.59c-6.22,7.63-18.75,4.75-27.39,4.28-.23-.31,4.76-4.91,5.36-5.64,2.89-3.55,2.58-6.7,7.87-7.16s3.27.21,5.57,2.88c2.14,2.49,5.31,5.11,8.59,5.64Z"/>
          <path class="cls-10" d="M169.69,194.36c-4.78,2.29-8.54,6.4-12.69,9.62-3.01-1.48-5.11-4.15-8.07-5.76-1.16-.63-5.85-2.02-6.08-2.25-.84-.81.3-.94.69-1.2,4.9-3.31,23.19-6.7,26.16-.42Z"/>
          <path class="cls-9" d="M44.98,110.24s10.28-13.13,9.09-20.87c-1.43-9.35-7.42-17.15-7.42-17.15l-3.92,21.31,2.26,16.71Z"/>
          <path class="cls-9" d="M116.43,58.8s-2.74,17.23,1.7,23.68c5.37,7.79,14.38,14.91,14.38,14.91l-6.77-24.54-9.32-14.06Z"/>
          <path class="cls-7" d="M223.94,170.21c1.45,12.11-5.4,30.71-19.34,31.93l2.72-13.11c7.94.77,15.22-1.96,14.49-11.06-.31-3.91-3.81-6.2,2.13-7.76Z"/>
          <g>
            <path class="cls-1" d="M302.95,185.02c-.5.47-.99,1.13-1.3,1.22-.2.06-.16-.22-.2-.65-.73-8-6.52-23.72-12.37-26.17-.41-.17-.87-.15-1.25.08-1.29.79-3.52,2.68-4.88,3.4-1.55.82-4.86,1.64-6.29,2.67-.24.17-.4.41-.49.69-2.14,7.08-7.22,14.48-14.5,17.33-.84.33-1.14,1.35-.59,2.07,4.15,5.46,8.79,12.74,11.17,19.18.24.64-.43.51-1.05.81-.24.12-.49.24-.76.36-.77.37-2.79,1.37-2.98.54-6.46-28.05-45.15-28.47-29.68-14.24.1.09.23.18.35.24,9.06,4.31,9.37,4.81,11.96,14.38.03.11.07.22.13.32.51.93,3.78,2.53,4.48,3,1,.67-1.87,1.08-3.05,1.3-.35.06-1.32.3-1.66.38-.42.1-.23-.18-.54-.47-3.14-2.86-2.89-5.8-4.31-9.56-1.58-4.19-2.03-1.58-4.21-.19-.1.06-.21.11-.32.15-8.96,2.88-8.84,7.55-15.05,14.53-4.61,4.82-9.16,4.65-15.41,5.44-.25.03-3.27,1.08-3.46,1.24-10.41,8.7-17.4,9.85-31.45,4.77-.3-.11-.61-.18-.91-.1-7.63,1.93-16.79,2.1-23.59-2.87-1.46-.94-5.48-4.97-6.12-5.16-.51-.15-1.22-1.64-4.75-2.02-.21-.02-2.35-.09-4.67-.02-.4.01-4.46-1.9-4.76-2.17-3.93-3.64-2.25-1.52-5.18-5.75,0,0-2.67-4.9-4.46-8.18-.54-1-1.98-.9-2.42.15-1.34,3.18-3.86,5.33-6.82,7-.53.3-1.98,1.16-1.86,1.75,2.45,12.38,5.71,27.52-6.64,35.12-1.29.81-6.17,3.54-7.23,1.95-.94-1.4,1.48-4.6,2.32-6.43.5-1.08,1.44-3.75.29-3.07-6.54,3.85-18.08,6.43-24.69,3.44-5.8-2.63-.16-4.45,2.49-5.51,4.96-1.73,7.53-5.77,10.03-9.78.63-1.01-.27-2.28-1.43-2.02-5.08,1.13-13,2.26-12.99-2.35,0-.61.44-1.14,1.04-1.29,1.08-.27,2.76-.42,3.36-.64,1.13-.42,6.83-4.93,9.22-7.57.69-.76.34-1.96-.66-2.21-6.47-1.63-16.31-5.01-19.76-10.84-.76-1.28.81-2.67,1.99-1.76,1.35,1.04,2.71,2.26,3.22,2.59,9.51,6.18,21.12,9.55,32.5,7.65,3.44-.58,14.43-3.75,12.52-8.79-.07-.17-.17-.33-.3-.47-6.77-6.91-24.94.08-36.89-14.81-1.13-1.5-.92-3.16,1.01-2.63,22.63,19.34,10.23-1.91,37.09-3.25.93-.05,1.54-1,1.18-1.86l-2.67-6.37c-.26-.62-.93-.95-1.57-.78-2.57.67-8.36,3.11-9.91,3.44-5.02,1.07-10.75.86-15.89,1.3-1.75.58.35,5.05-3.24,4.25-.76-.17-1.24-4.08-2.49-4.58-7.92-1.73-15.25-5.01-22.35-8.74-.68-.36-1.53-.07-1.85.63-6.65,14.6-13.85,28.67-16.82,44.63-.18.97-1.3,1.44-2.1.86-.62-.44-1.17-.91-1.21-1.1-1.58-8.87,14.43-40.13,17.99-46.84.26-.5.18-1.1-.2-1.52-12.96-14.47-11.78-28.49-11.56-46.91,0-.06,0-.12-.01-.18-4.92-38.57.61-67.77,28.72-19.38.34.58,1.05.83,1.67.58,7.87-3.21,16.09-6.76,24.61-4.34.75.21,1.51-.28,1.66-1.04,6.96-34.73,20.21-51.14,30.32-4.49,0,.04.02.08.02.12,3.45,29.66,26.34,49.39-3.48,75.33-.44.38-.59,1-.37,1.54,8.71,20.68,17.09,10.88,30.09,21.49.05.04.09.08.14.13.99,1.01,2.51,3.75,2.72,3.86.34.19,3.24.54,4.83.54.58,0,1.08-.37,1.26-.92,3.31-10.2,7.14-23.79,18.84-28.96,6.99-3.45,23.22-6.09,21.02-16.69-.08-.36-.31-.67-.63-.86-3.04-1.82-8.43-5.09-11.68-8.22-.69-.67-1.82-.43-2.19.46-3.29,8-14.33,11.52-11.57,20.88.32,1.09-1.5,1.37-2.55.93-2-.84-2.8-1.36-3.58-3.17-3.23-7.44,4.13-12.16,2.47-18.14-.06-.22-.19-.42-.35-.59-13.47-13.57-30.87-29.02-18.64-49.86.05-.08.11-.16.17-.23,8.53-9.58,7.99-11.04,9.09-23.38,0-.04,0-.09.02-.13,1.65-9.26,5.36-22.62,10.56-30.43,5.33-8.43,16.05-14.28,25.78-14.75.34-.02.67-.16.9-.42,31.24-33.24,88.32-1.06,99.54,36.63,2.53,8.69,3.32,17.81,2.2,26.75-.03.2,0,.4.06.6,3,8.59,7.51,19.44,3.8,28.9-1.9,5.69-5.6,6.94-8.43,11.44-7.06,11.99-1.23,25.2-7.93,36.98-.27.48-.25,1.07.09,1.5,5.07,6.58,12.2,17.73,12.28,26.36M206.76,19.91c14.7-9.72,34.19-15.8,47.78-.79,16.27,17.98,7.04,43.5,23.1,58.5,5.02,4.69,19.6,14.62,23.13,4.31,12.51-45.59-46.14-97.63-88.6-71.37-1.22.79-5.81,4.59-6.24,5.61-.49,1.15.86,2.55.83,3.74ZM296.45,88.63c-9.77.29-20.58-7.97-25.9-15.72-5.4-7.86-5.51-21.12-7.66-30.46-5.95-25.81-22.39-37.83-47.9-24.78-1,.51-7.5,4.37-7.73,4.76-.82,1.38-.44,3.46-.5,4.99,38.66-16.66,36.7,44.67,59.66,61.41,8.69,5.97,22.43,8.69,30.03-.22ZM168.63,70.37c16.35-7.82,10.19-41.48,32.98-37.66,2.91-1.9,4.24-13.69,1.95-15.24-1.94-1.31-12.05,2.61-14.35,3.96-14.57,8.6-20.18,33.18-20.58,48.94ZM299.66,89.69c-15.54,15.59-37.93,3.74-47.15-12.72-7.78-13.89-8.81-32.51-21.05-43.91-10.78-10.05-26.62-7.76-27.59,8.3,7.89-8.81,15.88-.87,19.4,7.94,3.7,9.25,4.13,19.92,9.36,28.75,11.02,18.82,56.14,40.85,67.03,11.65ZM201.38,34.95c-14.64-2.34-14.82,14.44-19.4,23.82-8.38,17.14-32.64,23.96-24.51,47.71,3.76,10.99,10.99,13.43,17.88,20.78,8.55,9.12-.55,13.37.25,23.1l1.85-4.85c17.47-20.7-11.91-27.83-6-51.08,8.47-23.18,29.57-29.93,29.92-59.47ZM243.81,95.59c.19-.77-.15-.88-.52-1.35-18.98-14.4-16.88-26.07-24.08-45.71-8.95-16.15-17.33-5.46-19.43,7.63-6.09,16.72-19.71,21.45-18.29,42.41,2.39,42.99,65.99,63.4,80.59,17.17,2.03-2.56,8.77-6.71,4.47-9.85-6.33-4.96-3.65,5.43-16.98,11.31-5.91,1.87-17.79-20.16-5.76-21.6ZM119.24,136.96c6.83.2-2.79,13.73-2.07,13.58.09.95,5.68,7.34,6.59,7.34,3.19-.02,11.67-12.88,13.02-15.98,6.43-14.78-.55-21.29-4.84-34.06-4.96-10.25-10.57-72.61-23.49-35.59-.89,2.42-5.58,17.97-5.27,19.29.46,1.92,6.53,1.95,5.28,5.14-10.42-2.24-18.75-5.76-29.37-.1-1.68.8-9.57,6.79-10.37,6-.08-1.97,1.48-3.41.96-5.49-.35-1.41-7.21-11.56-8.58-13.46-5.95-8.28-14.35-18.51-15.5-.66-.55,8.61.87,17.2,1.12,25.77-2.3,27.61,1.59,55.75,34.35,60.41l.31-10.78c-5.67-.93-15.47-5.72-12.08-12.79,2.01-1.34,4.98,3.85,6.39,5.05,4.76,4.05,12.61,2.92,16.12-2.15,4.46-6.46-3.98-6.37-5.94-9.64-2.31-3.85,5.25-2.79,7.21-3.05,1.76-.23,9.16-3.28,8.84.24-.43,4.66-8.82,4.19-3.13,10.3,8.28,7.83,18.77-.08,20.44-9.36ZM276.04,133.17c15.12-13.45,40.33-25,27.93-49.38-1.8,15.56-17.07,25.68-32.23,22.54-.54,5.53,3.64,13.72,4.29,18.52,0,0,0,8.32,0,8.32ZM178.82,86.48c-4.5,1.61-5.9,13.11-5.9,17.44,1.84,14.18,19.53,18.01,10.08,35.85-.2.48-.95,1.55.11,1.45,17.01-16.54-9.75-20.69-4.29-54.74ZM259.92,104.18c.91-1.15-4.09-2.88-4.29-2.68-1.24,1.26,3,4.3,4.29,2.68ZM258.85,151.96c16.6-4.71,16.9-26.75,9.92-38.65-13.52,8.92-7.82,25.41-9.92,38.65ZM295.47,122.57l-.37-.67c.35-.18.72.85.37.67ZM294.83,122.44c-7.43,2.26-22.12,16.13-22.55,24.15,11.84-2.75,20.73-12.13,22.55-24.15ZM256.16,133.71c-13.74,6.24-17.29,21.68-13.95,35.41.66.63,5.07-1.06,5.75-1.74.75-.74,1.05-2.94,1.66-3.98,6.99-8.37,8.04-19.23,6.54-29.69ZM251.87,166.45c20.11-.2,44.62-6.65,41.89-31.67-9,17.08-36.2,12.15-41.89,31.67ZM242.2,142.84c-.98-.7-6.67,1.89-8.37,2.1-7.69.96-16.93-.13-24.39-2.11-3.1,22.44-33.98,7.98-40.83,47.23,5.53,2.42,10.54-.3,16.15-.77,2.63-12.32,11.91-24.63,25.96-21.72,7.29,2.82,6.1,3.45,12.84-.56,6.26-23.01,16.11-14.33,18.64-24.18ZM238.44,151.43c-13.12,4.46-11.27,20.49-12.34,31.67,3.92-4.75,8.53-8.85,13.34-12.73-1.05-6.28-1.15-12.57-1-18.94ZM133.17,178.26l-6.34-8.42c-4.63-6.25-8.34-17.76-17.82-16.8,5.69,5.66,8.83,18.82,12.87,24.44,2.7,2.74,7.95.23,11.3.78ZM88.1,169.62c5.27,1.54,20.05-.68,24.61-4.59-4.39-19.33-22.8-11.27-24.61,4.59ZM92.35,154.65c-.29-.27-6.98,2.93-7.23,3.23-.86.99-1.79,11.39-1.35,11.8.44-.07,1.45.12,1.6,0,.31-.25,1.18-6.6,2.31-7.63l4.67-7.4ZM271.74,166.99c-15.71,1.76-35.45,2.84-43.5,18.78,3.77.86,3.19-2.83,5.63-4.83,9.43-6.59,17.69,2.39,25.51.8,5.7-2.01,11.28-8.86,12.36-14.74ZM205.03,170.33c-8.78,1-16.53,11.24-16.54,19.47,2.31,1.35,5.44-4.33,9-4.98,6.86-1.25,22.91,5.88,21.64-6.31-.59-5.72-9.25-8.69-14.1-8.19ZM223.94,170.21c-5.94,1.56-2.44,3.85-2.13,7.76.72,9.1-6.55,11.83-14.49,11.06l-2.72,13.11c13.94-1.22,20.79-19.82,19.34-31.93ZM155.73,188.46c.98-.94-2.8-3.68-3.58-4.2-6.44-3.96-15.33-5.14-22.19-2.5,2.4,2.76,8.33,7.78,9.71,12.04,5.2-2.24,10.08-5.64,16.07-5.34ZM132.63,190.07c-6.25-13.76-28.56-11.17-35.98.8-.01.57,9.4,1,10.47.8,6.97-6.67,17.48-7.26,25.52-1.6ZM204.07,187.92c-12.84-1.78-16.52,13.64-20.95,22.54,12.02,1.84,21.68-11.22,20.95-22.54ZM142.3,216.37c-6.37-10.02-7.47-29.78-24.16-26.83,5.7,10.71,9.08,27.23,24.16,26.83ZM241.13,197.59c-3.28-.53-6.45-3.15-8.59-5.64-2.3-2.67-.44-3.33-5.57-2.88s-4.97,3.62-7.87,7.16c-.6.73-5.59,5.33-5.36,5.64,8.64.47,21.18,3.35,27.39-4.28ZM118.13,195.97c-1.07-3.6-2.84-7.7-6.44-3.48l6.44,3.48ZM169.69,194.36c-2.96-6.28-21.26-2.9-26.16.42-.39.26-1.53.38-.69,1.2.23.23,4.92,1.62,6.08,2.25,2.96,1.61,5.06,4.28,8.07,5.76,4.15-3.22,7.91-7.32,12.69-9.62ZM188.49,192.76c-10.51-1.89-23.76,5.35-28.94,14.11,1.06,4.04,6.28,1.59,8.81,1.46,16.2,1.64,13.22-3.65,20.13-15.57ZM156.62,207.97c-4.97-4.91-11.13-10.16-18.61-9.85,4.84,15.39,14.88,32.23,33.83,27.37-5.43-5.47-9.75-12.11-15.23-17.52ZM229.85,205.64c-9.57,1.04-20.95-2.62-29.91,1.51-1.44,1.04-9.09,4.63-8.76,6.53,13.1,7.23,31.87,8.35,38.67-8.04ZM107.93,210.47c-3.15-.28-1.37,5.15-1.51,7.69-.53,9.64-5.04,16.19-6.54,25.59,12.45-5.21,11.2-22.23,8.05-33.28ZM203.53,221.21c-13.26-2.56-24.97-13.66-39.2-9.12,6.21,12.71,29.97,23.92,39.2,9.12ZM93.43,211.55l-4.29.27-9.68,9.91c9.27,1.35,10.86-2.82,13.96-10.19ZM104.17,211.54c-1.85.17-6.55-.45-7.92.68-4.88,8.01-8.66,24.26-20.02,26.97,11.51,5.45,27.31-5.62,27.93-18.79,0,0,0-8.86,0-8.86Z"/>
            <path class="cls-4" d="M268.88,206.73c-4.78,2.1-10.03,3.25-15.48,4.41-.56-1.93-2.27-2.03-3.26-4.04-2.65-9.83-2.92-10.23-12.2-14.64-16.2-14.57,25.57-15.62,30.95,14.27Z"/>
            <path class="cls-7" d="M206.76,19.91c.02-1.19-1.32-2.59-.83-3.74.43-1.02,5.02-4.82,6.24-5.61,42.46-26.25,101.11,25.78,88.6,71.37-3.53,10.3-18.11.38-23.13-4.31-16.07-15-6.83-40.52-23.1-58.5-13.59-15.01-33.08-8.93-47.78.79Z"/>
            <path class="cls-10" d="M296.45,88.63c-7.6,8.9-21.34,6.19-30.03.21-22.95-16.73-21.02-78.09-59.66-61.41-.97-6.6,3.4-6.46,8.23-9.75,25.5-13.06,41.95-1.04,47.9,24.78,2.15,9.34,2.26,22.59,7.66,30.46,5.33,7.75,16.13,16,25.9,15.72Z"/>
            <path class="cls-7" d="M299.66,89.69c-10.89,29.21-56,7.18-67.03-11.64-5.23-8.84-5.67-19.5-9.36-28.75s-11.5-16.75-19.4-7.94c.97-16.05,16.8-18.34,27.59-8.3,12.24,11.4,13.26,30.02,21.05,43.91,9.22,16.46,31.61,28.31,47.15,12.72Z"/>
            <path class="cls-7" d="M201.38,34.95c-.4,29.68-21.4,36.2-29.92,59.47-5.91,23.25,23.47,30.38,6,51.08l-1.85,4.85c-.81-9.73,8.29-13.98-.25-23.1-6.89-7.35-14.12-9.79-17.88-20.78-8.13-23.75,16.12-30.57,24.51-47.71,4.59-9.38,4.76-26.16,19.4-23.82Z"/>
            <path class="cls-3" d="M242.2,142.84c-2.51,9.82-12.42,1.23-18.64,24.18-6.73,4.01-5.56,3.37-12.84.56-14.05-2.91-23.33,9.4-25.96,21.72-5.61.47-10.62,3.19-16.15.77,6.95-39.4,37.62-24.67,40.83-47.23,7.46,1.98,16.7,3.06,24.39,2.11,1.7-.21,7.39-2.79,8.37-2.1Z"/>
            <path class="cls-10" d="M276.04,133.17v-8.32c-.66-4.81-4.83-12.96-4.29-18.52,15.15,3.14,30.43-6.99,32.23-22.54,12.39,24.39-12.81,35.92-27.93,49.38Z"/>
            <path class="cls-10" d="M168.63,70.37c.4-15.76,6.01-40.34,20.58-48.94,2.29-1.35,12.41-5.27,14.35-3.96,2.29,1.55.96,13.34-1.95,15.24-22.79-3.82-16.63,29.84-32.98,37.66Z"/>
            <path class="cls-10" d="M251.87,166.45c5.68-19.52,32.89-14.59,41.89-31.67,2.74,25.03-21.78,31.46-41.89,31.67Z"/>
            <path class="cls-10" d="M258.85,151.96c2.1-13.22-3.59-29.74,9.92-38.65,6.98,11.91,6.66,33.94-9.92,38.65Z"/>
            <path class="cls-4" d="M205.03,170.33c4.84-.5,13.5,2.47,14.1,8.19,1.27,12.19-14.78,5.06-21.64,6.31-3.56.65-6.69,6.33-9,4.98.02-8.24,7.75-18.47,16.54-19.47Z"/>
            <path class="cls-7" d="M256.16,133.71c1.5,10.46.45,21.32-6.54,29.69-.61,1.03-.91,3.23-1.66,3.98-.68.68-5.09,2.37-5.75,1.74-3.34-13.73.21-29.17,13.95-35.41Z"/>
            <path class="cls-7" d="M271.74,166.99c-1.09,5.89-6.66,12.74-12.36,14.74-7.75,1.59-16.14-7.38-25.51-.8-2.44,2-1.87,5.69-5.63,4.83,8.05-15.94,27.79-17.01,43.5-18.78Z"/>
            <path class="cls-10" d="M238.44,151.43c-.15,6.37-.05,12.66,1,18.94-4.82,3.88-9.42,7.97-13.34,12.73,1.08-11.17-.78-27.21,12.34-31.67Z"/>
            <path class="cls-9" d="M178.82,86.48c-5.45,34.08,21.3,38.17,4.29,54.74-1.06.1-.31-.97-.11-1.45,9.44-17.9-8.22-21.62-10.08-35.85,0-4.34,1.4-15.81,5.9-17.44Z"/>
            <path class="cls-7" d="M294.83,122.44c-1.82,12.03-10.71,21.4-22.55,24.15.5-8.1,15.03-21.81,22.55-24.15Z"/>
            <g>
              <path class="cls-4" d="M243.81,95.59c-12.02,1.45-.16,23.46,5.76,21.6,13.3-5.85,10.64-16.28,16.98-11.32,4.3,3.14-2.44,7.29-4.47,9.86-14.6,46.22-78.21,25.82-80.6-17.17-1.42-20.96,12.21-25.69,18.29-42.41,2.1-12.96,10.4-23.88,19.43-7.63,7.22,19.69,5.1,31.3,24.08,45.71.37.47.7.58.52,1.35ZM214.81,75.2c-1.84-6.17-11-7.15-16.11-4.82.71,1.89,2.58.48,4.01.5,4.66-.7,8.21,2.48,12.1,4.32ZM193.48,105.63c7.01,2.63,22.96-11.57,13.79-18.33-3.58-2.31-6.36.41-8.21.12-6.24-5.65-15.44-2.91-12.99,6.59.44,1.67,6.14,10.58,7.42,11.62ZM225.39,111.87c-4.75-4.39-12.03,4.52-7.9,10.31,3.4,4.77,9.58-.92,8.06-2.42-1.15-1.14-2.11,1.75-3.05,2.05-6.96,2.2-4.03-12.03,1.46-8.77,1.45.86.33,4.74,3.21,4.03.58-.58-1.03-4.51-1.77-5.2Z"/>
              <path class="cls-8" d="M259.92,104.18c-1.29,1.62-5.53-1.42-4.29-2.68.2-.2,5.2,1.53,4.29,2.68Z"/>
              <path class="cls-1" d="M193.48,105.63c-1.28-1.04-6.98-9.95-7.42-11.63-2.44-9.5,6.75-12.24,12.99-6.59,1.85.29,4.63-2.43,8.21-.12,9.18,6.76-6.77,20.97-13.79,18.33ZM208.07,91.84c.05-3.3-5.13-3.3-5.08,0-.05,3.3,5.13,3.3,5.08,0Z"/>
              <path class="cls-1" d="M225.39,111.87c.74.69,2.36,4.62,1.77,5.2-2.88.71-1.76-3.17-3.21-4.03-5.48-3.26-8.41,10.96-1.46,8.77.94-.3,1.9-3.19,3.05-2.05,1.51,1.5-4.66,7.19-8.06,2.42-4.13-5.79,3.15-14.7,7.9-10.31Z"/>
              <path class="cls-1" d="M214.81,75.2c-3.89-1.84-7.44-5.02-12.1-4.32-1.42-.03-3.3,1.38-4.01-.51,5.1-2.32,14.27-1.34,16.11,4.82Z"/>
              <path class="cls-8" d="M208.07,91.84c.05,3.3-5.13,3.3-5.08,0-.05-3.3,5.13-3.3,5.08,0Z"/>
            </g>
          </g>
        </g>
      </g>
    </g>
    <path class="cls-10" d="M297.7,144.22s3.6-2.52,4.83-4.51,1.98-3.56,1.98-3.56l12.37,29.63-1.92,2.11-3.64,3.4-5.43-14.77-8.18-12.3Z"/>
    <path class="cls-7" d="M66.84,219.98s3.23-8.79,3.49-8.98,11.75-1.67,11.75-1.67c0,0,8.25,2.41,9.8,2.31s-.61,4.73-.61,4.73l-5.01,9.8-13.31-1.04"/>
  </g>
</svg>